<svg xmlns="http://www.w3.org/2000/svg" xmlns:xlink="http://www.w3.org/1999/xlink" viewBox="0 0 164 197"><defs><clipPath id="clip-path"><path d="M78.59,105H51.66v8.8H78.59a1.07,1.07,0,0,0,1.07-1.07v-6.66A1.07,1.07,0,0,0,78.59,105Z" style="fill:none"/></clipPath></defs><title>self-study</title><g id="Layer_2" data-name="Layer 2"><g id="Layer_1-2" data-name="Layer 1"><rect width="164" height="197" style="fill:#e69119"/><g id="Layer_2-2" data-name="Layer 2"><g id="Layer_3" data-name="Layer 3"><circle cx="81.76" cy="84.02" r="77.5" style="fill:#ffdb79"/><rect x="45.59" y="63.95" width="8.57" height="59.64" style="fill:#fff"/><rect x="45.59" y="70.25" width="8.57" height="47.03" style="fill:#474f59"/><rect x="54.17" y="70.25" width="31.98" height="47.03" style="fill:#353f49"/><rect x="54.17" y="63.95" width="31.98" height="6.3" style="fill:#d9d8d7"/><rect x="54.17" y="117.28" width="31.98" height="6.3" style="fill:#474f59"/><rect x="20.46" y="92.85" width="62.41" height="10.65" style="fill:#fff"/><rect x="27.59" y="92.85" width="48.14" height="10.65" style="fill:#f77b55"/><rect x="35.26" y="98.76" width="32.8" height="1.42" style="fill:#fff"/><rect x="35.26" y="96.17" width="16.4" height="1.42" style="fill:#fff"/><rect x="17.17" y="115.3" width="68.97" height="8.28" style="fill:#76d0de"/><rect x="28.99" y="115.3" width="5.92" height="8.28" style="fill:#fff"/><rect x="25.06" y="115.3" width="1.97" height="8.28" style="fill:#fff"/><rect x="68.41" y="115.3" width="5.92" height="8.28" style="fill:#fff"/><rect x="76.29" y="115.3" width="1.98" height="8.28" style="fill:#fff"/><path d="M80.41,104.25a2.57,2.57,0,0,0-1.82-.73H22.15V105H78.59a1.07,1.07,0,0,1,1.07,1.07v6.65a1.07,1.07,0,0,1-1.07,1.07H22.15v1.5H78.59a2.58,2.58,0,0,0,2.58-2.58h0v-6.66A2.58,2.58,0,0,0,80.41,104.25Z" style="fill:#353f49"/><path d="M23.65,113.8V105H78.59a1.07,1.07,0,0,1,1.07,1.07v6.65a1.07,1.07,0,0,1-1.07,1.07Z" style="fill:#fff"/><path d="M78.59,105H51.66v8.8H78.59a1.07,1.07,0,0,0,1.07-1.07v-6.66A1.07,1.07,0,0,0,78.59,105Z" style="fill:#cccbca"/><g style="clip-path:url(#clip-path)"><rect x="51.14" y="104.57" width="30.03" height="0.43" style="fill:#fff"/><rect x="51.14" y="105.49" width="30.03" height="0.43" style="fill:#f2f2f2"/><rect x="51.14" y="106.42" width="30.03" height="0.43" style="fill:#f2f2f2"/><rect x="51.14" y="107.34" width="30.03" height="0.43" style="fill:#f2f2f2"/><rect x="51.14" y="108.26" width="30.03" height="0.43" style="fill:#f2f2f2"/><rect x="51.14" y="109.18" width="30.03" height="0.43" style="fill:#f2f2f2"/><rect x="51.14" y="110.11" width="30.03" height="0.43" style="fill:#f2f2f2"/><rect x="51.14" y="111.03" width="30.03" height="0.43" style="fill:#f2f2f2"/><rect x="51.14" y="111.95" width="30.03" height="0.43" style="fill:#f2f2f2"/><rect x="51.14" y="112.88" width="30.03" height="0.43" style="fill:#f2f2f2"/><rect x="51.14" y="113.8" width="30.03" height="0.43" style="fill:#fff"/></g><polygon points="72.81 111.46 69.18 111.46 69.18 119.64 70.99 117.82 72.81 119.64 72.81 111.46" style="fill:#f77b55"/><rect x="113.93" y="94.67" width="51.79" height="3.11" transform="translate(-21.67 148.46) rotate(-52.46)" style="fill:#474f59"/><rect x="137.66" y="31.5" width="3.11" height="51.79" transform="matrix(0.77, -0.63, 0.63, 0.77, -4.87, 101.16)" style="fill:#474f59"/><circle cx="154.96" cy="76.58" r="4.27" transform="translate(71.61 228) rotate(-87.47)" style="fill:#232e38"/><path d="M90.11,123.58h45.31V121a5.17,5.17,0,0,0-5.16-5.17h-35A5.17,5.17,0,0,0,90.08,121s0,0,0,0Z" style="fill:#232e38"/><path d="M122,32.11a4.27,4.27,0,0,1-2.77,8.08h0l-10.59-3.67,2.76-8Z" style="fill:#232e38"/><path d="M107.7,59.33a8.5,8.5,0,1,1-5.29-10.81,8.5,8.5,0,0,1,5.29,10.81Z" style="fill:#fff"/><polygon points="78.28 49.26 121.04 63.9 116.18 40.02 96.76 33.36 78.28 49.26" style="fill:#232e38"/><rect x="102.7" y="21.06" width="10.22" height="20.58" transform="translate(43.68 123.52) rotate(-71.38)" style="fill:#474f59"/><rect x="108.81" y="20.39" width="2.88" height="10.58" transform="translate(50.23 121.66) rotate(-71.09)" style="fill:#232e38"/><polygon points="121.04 123.58 121.04 63.9 78.28 49.26 25.06 123.58 121.04 123.58" style="fill:#f9f6c7;opacity:0.5"/><polygon points="17.17 131.44 4.26 127.52 17.17 123.58 17.17 131.44" style="fill:#f2f2f2"/><polygon points="4.26 127.52 17.17 131.44 17.17 128.97 4.26 127.52" style="fill:#cccbca"/><rect x="17.17" y="123.58" width="129.17" height="7.86" style="fill:#f77b55"/><rect x="17.17" y="128.97" width="129.17" height="2.47" style="fill:#ee643c"/><polygon points="9.31 129.05 4.26 127.52 9.31 125.97 9.31 129.05" style="fill:#353f49"/><polygon points="9.31 129.05 4.26 127.52 9.31 128.08 9.31 129.05" style="fill:#232e38"/><rect x="146.35" y="123.58" width="4.56" height="7.86" style="fill:#f2f2f2"/><rect x="146.35" y="128.97" width="4.56" height="2.47" style="fill:#cccbca"/><path d="M155.33,131.44a3.93,3.93,0,0,0,3.93-3.92h0a3.93,3.93,0,0,0-3.93-3.93h-4.42v7.86Z" style="fill:#474f59"/><path d="M158.11,124.74a3.92,3.92,0,0,0-1.54-.93,4.07,4.07,0,0,1,.21,1.24,3.93,3.93,0,0,1-3.93,3.93h-2v2.47h4.42a3.93,3.93,0,0,0,2.78-6.71Z" style="fill:#232e38"/></g></g><path d="M46.34,170.91a.77.77,0,0,1-.19.22.42.42,0,0,1-.26.08.69.69,0,0,1-.39-.17,6.32,6.32,0,0,0-.57-.37,4.64,4.64,0,0,0-.83-.37,3.57,3.57,0,0,0-1.17-.17,3.49,3.49,0,0,0-1.15.17,2.47,2.47,0,0,0-.83.47,2,2,0,0,0-.5.71,2.24,2.24,0,0,0-.17.88,1.62,1.62,0,0,0,.29,1,2.52,2.52,0,0,0,.78.67,5.91,5.91,0,0,0,1.1.49l1.26.42q.65.22,1.26.5a4.43,4.43,0,0,1,1.1.7,3.18,3.18,0,0,1,.78,1,3.43,3.43,0,0,1,.29,1.5,4.85,4.85,0,0,1-.32,1.76,4.07,4.07,0,0,1-.93,1.43,4.35,4.35,0,0,1-1.51,1,5.55,5.55,0,0,1-2,.35,6.21,6.21,0,0,1-2.53-.5,6,6,0,0,1-2-1.37l.56-.92a.77.77,0,0,1,.2-.19.46.46,0,0,1,.25-.07.79.79,0,0,1,.48.22,8.05,8.05,0,0,0,.68.5,5.17,5.17,0,0,0,1,.5,3.88,3.88,0,0,0,1.4.22,3.72,3.72,0,0,0,1.23-.19,2.63,2.63,0,0,0,.91-.54,2.33,2.33,0,0,0,.58-.83,2.77,2.77,0,0,0,.2-1.07,1.79,1.79,0,0,0-.29-1.06,2.45,2.45,0,0,0-.78-.7,5.4,5.4,0,0,0-1.09-.47l-1.26-.4a12.65,12.65,0,0,1-1.26-.47,4.11,4.11,0,0,1-1.09-.7,3.22,3.22,0,0,1-.78-1.08,3.82,3.82,0,0,1-.29-1.59,3.82,3.82,0,0,1,1.15-2.73,4.13,4.13,0,0,1,1.38-.88,5.08,5.08,0,0,1,1.89-.33,6.07,6.07,0,0,1,2.19.38,5,5,0,0,1,1.73,1.1Z"/><path d="M53.33,172.71A4.52,4.52,0,0,1,55,173a3.8,3.8,0,0,1,1.33.88,4,4,0,0,1,.88,1.42,5.48,5.48,0,0,1,.32,1.92,1.16,1.16,0,0,1-.09.56.37.37,0,0,1-.34.14H50.36a5.57,5.57,0,0,0,.26,1.67,3.41,3.41,0,0,0,.66,1.18,2.64,2.64,0,0,0,1,.71,3.42,3.42,0,0,0,1.3.24,3.82,3.82,0,0,0,1.16-.16,5.49,5.49,0,0,0,.83-.33,6.32,6.32,0,0,0,.59-.33.77.77,0,0,1,.4-.16.39.39,0,0,1,.34.17l.5.65a3.39,3.39,0,0,1-.79.7,4.89,4.89,0,0,1-1,.48,6.26,6.26,0,0,1-1.08.29,6.62,6.62,0,0,1-1.11.09,5.15,5.15,0,0,1-1.93-.35,4.25,4.25,0,0,1-1.53-1,4.76,4.76,0,0,1-1-1.7,6.88,6.88,0,0,1-.36-2.32,5.9,5.9,0,0,1,.32-2,4.66,4.66,0,0,1,.94-1.59,4.29,4.29,0,0,1,1.49-1.06A4.9,4.9,0,0,1,53.33,172.71Zm0,1.31a2.73,2.73,0,0,0-2,.75,3.51,3.51,0,0,0-.92,2.07h5.51a3.6,3.6,0,0,0-.17-1.13,2.53,2.53,0,0,0-.5-.89,2.24,2.24,0,0,0-.8-.58A2.73,2.73,0,0,0,53.37,174Z"/><path d="M61.78,168.27V183H60V168.27Z"/><path d="M65.32,183v-8.61l-1.12-.13a.9.9,0,0,1-.35-.15.36.36,0,0,1-.13-.31v-.73h1.6v-1a4.52,4.52,0,0,1,.25-1.54,3.12,3.12,0,0,1,.7-1.14,3,3,0,0,1,1.09-.71,4.08,4.08,0,0,1,1.44-.24,3.83,3.83,0,0,1,1.26.2l0,.89a.23.23,0,0,1-.17.24,2,2,0,0,1-.45,0h-.31a2.72,2.72,0,0,0-.83.12,1.59,1.59,0,0,0-.65.39,1.77,1.77,0,0,0-.42.71,3.53,3.53,0,0,0-.14,1.09v.93H70v1.29H67.11V183Z"/><path d="M71.2,176.25h4.94v1.51H71.2Z"/><path d="M86.22,170.91a.77.77,0,0,1-.19.22.42.42,0,0,1-.26.08.69.69,0,0,1-.39-.17,6.32,6.32,0,0,0-.57-.37,4.64,4.64,0,0,0-.83-.37,3.57,3.57,0,0,0-1.17-.17,3.49,3.49,0,0,0-1.15.17,2.47,2.47,0,0,0-.83.47,2,2,0,0,0-.5.71,2.24,2.24,0,0,0-.17.88,1.62,1.62,0,0,0,.29,1,2.52,2.52,0,0,0,.78.67,5.91,5.91,0,0,0,1.1.49l1.26.42q.65.22,1.26.5a4.43,4.43,0,0,1,1.1.7,3.18,3.18,0,0,1,.78,1,3.43,3.43,0,0,1,.29,1.5,4.85,4.85,0,0,1-.32,1.76,4.07,4.07,0,0,1-.93,1.43,4.35,4.35,0,0,1-1.51,1,5.55,5.55,0,0,1-2,.35,6.21,6.21,0,0,1-2.53-.5,6,6,0,0,1-2-1.37l.56-.92a.77.77,0,0,1,.2-.19.46.46,0,0,1,.25-.07.79.79,0,0,1,.48.22,8.05,8.05,0,0,0,.68.5,5.17,5.17,0,0,0,1,.5,3.88,3.88,0,0,0,1.4.22,3.72,3.72,0,0,0,1.23-.19,2.63,2.63,0,0,0,.91-.54A2.33,2.33,0,0,0,85,180a2.77,2.77,0,0,0,.2-1.07,1.79,1.79,0,0,0-.29-1.06,2.45,2.45,0,0,0-.78-.7A5.4,5.4,0,0,0,83,176.7l-1.26-.4a12.65,12.65,0,0,1-1.26-.47,4.11,4.11,0,0,1-1.09-.7,3.22,3.22,0,0,1-.78-1.08,3.82,3.82,0,0,1-.29-1.59,3.82,3.82,0,0,1,1.15-2.73,4.13,4.13,0,0,1,1.38-.88,5.08,5.08,0,0,1,1.89-.33,6.07,6.07,0,0,1,2.19.38,5,5,0,0,1,1.73,1.1Z"/><path d="M92.27,183.16a2.44,2.44,0,0,1-1.84-.67,2.67,2.67,0,0,1-.65-1.93v-6.2H88.56a.4.4,0,0,1-.27-.1.37.37,0,0,1-.11-.29v-.71l1.66-.21.41-3.13a.38.38,0,0,1,.13-.25.41.41,0,0,1,.28-.09h.9v3.49h2.9v1.29h-2.9v6.08a1.29,1.29,0,0,0,.31.95,1.08,1.08,0,0,0,.8.31,1.41,1.41,0,0,0,.48-.08,2.09,2.09,0,0,0,.36-.17l.25-.17a.34.34,0,0,1,.18-.08.3.3,0,0,1,.25.17l.52.85a3.32,3.32,0,0,1-1.11.67A3.77,3.77,0,0,1,92.27,183.16Z"/><path d="M98.2,172.87v6.46a2.69,2.69,0,0,0,.53,1.78,2,2,0,0,0,1.6.63,3.06,3.06,0,0,0,1.47-.37,4.58,4.58,0,0,0,1.27-1v-7.47h1.78V183h-1.06a.45.45,0,0,1-.48-.37l-.14-1.09a5.59,5.59,0,0,1-1.48,1.17,3.88,3.88,0,0,1-1.88.45,3.65,3.65,0,0,1-1.46-.28,2.91,2.91,0,0,1-1.07-.77,3.3,3.3,0,0,1-.64-1.21,5.4,5.4,0,0,1-.21-1.57v-6.46Z"/><path d="M114.91,183a.45.45,0,0,1-.48-.37l-.16-1.23a5.34,5.34,0,0,1-1.49,1.26,3.81,3.81,0,0,1-1.92.47,3.65,3.65,0,0,1-1.58-.33,3.27,3.27,0,0,1-1.21-1,4.7,4.7,0,0,1-.77-1.62A8.32,8.32,0,0,1,107,178a7,7,0,0,1,.3-2.08,5.09,5.09,0,0,1,.86-1.67,4,4,0,0,1,3.22-1.52A3.67,3.67,0,0,1,113,173a3.82,3.82,0,0,1,1.18.88v-5.62H116V183Zm-3.45-1.3a2.87,2.87,0,0,0,1.53-.4,4.41,4.41,0,0,0,1.21-1.13v-4.9a2.82,2.82,0,0,0-1.08-.92,3.1,3.1,0,0,0-1.29-.26,2.57,2.57,0,0,0-2.18,1,4.72,4.72,0,0,0-.76,2.88,7.33,7.33,0,0,0,.17,1.7,3.27,3.27,0,0,0,.5,1.16,2,2,0,0,0,.81.67A2.73,2.73,0,0,0,111.46,181.7Z"/><path d="M121.93,186a.93.93,0,0,1-.22.32.61.61,0,0,1-.42.12H120l1.85-4-4.18-9.54h1.54a.52.52,0,0,1,.36.12.71.71,0,0,1,.19.25l2.71,6.38a4.63,4.63,0,0,1,.16.44c0,.15.08.3.11.45l.14-.45c0-.15.1-.3.16-.45l2.63-6.37a.57.57,0,0,1,.21-.27.53.53,0,0,1,.32-.1h1.42Z"/></g></g></svg>